<?xml version="1.0" encoding="utf-8"?>
<!-- Generator: Adobe Illustrator 19.1.0, SVG Export Plug-In . SVG Version: 6.00 Build 0)  -->
<svg version="1.1" id="Layer_1" xmlns="http://www.w3.org/2000/svg" xmlns:xlink="http://www.w3.org/1999/xlink" x="0px" y="0px"
	 viewBox="0 0 1024 768" style="enable-background:new 0 0 1024 768;" xml:space="preserve">
<rect x="150" y="22" width="34" height="34"/>
<rect x="196" y="22" width="34" height="34"/>
<rect x="242" y="22" width="34" height="34"/>
<rect x="288" y="22" width="34" height="34"/>
<rect x="334" y="22" width="34" height="34"/>
<rect x="380" y="22" width="34" height="34"/>
<rect x="426" y="22" width="34" height="34"/>
<rect x="472" y="22" width="34" height="34"/>
<rect x="518" y="22" width="34" height="34"/>
<rect x="564" y="22" width="34" height="34"/>
<rect x="610" y="22" width="34" height="34"/>
<rect x="656" y="22" width="34" height="34"/>
<rect x="702" y="22" width="34" height="34"/>
<rect x="748" y="22" width="34" height="34"/>
<rect x="794" y="22" width="34" height="34"/>
<rect x="840" y="22" width="34" height="34"/>
<rect x="150" y="68" width="34" height="34"/>
<rect x="196" y="68" width="34" height="34"/>
<rect x="242" y="68" width="34" height="34"/>
<rect x="288" y="68" width="34" height="34"/>
<rect x="334" y="68" width="34" height="34"/>
<rect x="380" y="68" width="34" height="34"/>
<rect x="426" y="68" width="34" height="34"/>
<rect x="472" y="68" width="34" height="34"/>
<rect x="518" y="68" width="34" height="34"/>
<rect x="564" y="68" width="34" height="34"/>
<rect x="610" y="68" width="34" height="34"/>
<rect x="656" y="68" width="34" height="34"/>
<rect x="702" y="68" width="34" height="34"/>
<rect x="748" y="68" width="34" height="34"/>
<rect x="794" y="68" width="34" height="34"/>
<rect x="840" y="68" width="34" height="34"/>
<rect x="150" y="114" width="34" height="34"/>
<rect x="196" y="114" width="34" height="34"/>
<rect x="242" y="114" width="34" height="34"/>
<rect x="288" y="114" width="34" height="34"/>
<rect x="334" y="114" width="34" height="34"/>
<rect x="380" y="114" width="34" height="34"/>
<rect x="426" y="114" width="34" height="34"/>
<rect x="472" y="114" width="34" height="34"/>
<rect x="518" y="114" width="34" height="34"/>
<rect x="564" y="114" width="34" height="34"/>
<rect x="610" y="114" width="34" height="34"/>
<rect x="656" y="114" width="34" height="34"/>
<rect x="702" y="114" width="34" height="34"/>
<rect x="748" y="114" width="34" height="34"/>
<rect x="794" y="114" width="34" height="34"/>
<rect x="840" y="114" width="34" height="34"/>
<rect x="150" y="160" width="34" height="34"/>
<rect x="196" y="160" width="34" height="34"/>
<rect x="242" y="160" width="34" height="34"/>
<rect x="288" y="160" width="34" height="34"/>
<rect x="334" y="160" width="34" height="34"/>
<rect x="380" y="160" width="34" height="34"/>
<rect x="426" y="160" width="34" height="34"/>
<rect x="472" y="160" width="34" height="34"/>
<rect x="518" y="160" width="34" height="34"/>
<rect x="564" y="160" width="34" height="34"/>
<rect x="610" y="160" width="34" height="34"/>
<rect x="656" y="160" width="34" height="34"/>
<rect x="702" y="160" width="34" height="34"/>
<rect x="748" y="160" width="34" height="34"/>
<rect x="794" y="160" width="34" height="34"/>
<rect x="840" y="160" width="34" height="34"/>
<rect x="150" y="206" width="34" height="34"/>
<rect x="196" y="206" width="34" height="34"/>
<rect x="242" y="206" width="34" height="34"/>
<rect x="288" y="206" width="34" height="34"/>
<rect x="334" y="206" width="34" height="34"/>
<rect x="380" y="206" width="34" height="34"/>
<rect x="426" y="206" width="34" height="34"/>
<rect x="472" y="206" width="34" height="34"/>
<rect x="518" y="206" width="34" height="34"/>
<rect x="564" y="206" width="34" height="34"/>
<rect x="610" y="206" width="34" height="34"/>
<rect x="656" y="206" width="34" height="34"/>
<rect x="702" y="206" width="34" height="34"/>
<rect x="748" y="206" width="34" height="34"/>
<rect x="794" y="206" width="34" height="34"/>
<rect x="840" y="206" width="34" height="34"/>
<rect x="150" y="252" width="34" height="34"/>
<rect x="196" y="252" width="34" height="34"/>
<rect x="242" y="252" width="34" height="34"/>
<rect x="288" y="252" width="34" height="34"/>
<rect x="334" y="252" width="34" height="34"/>
<rect x="380" y="252" width="34" height="34"/>
<rect x="426" y="252" width="34" height="34"/>
<rect x="472" y="252" width="34" height="34"/>
<rect x="518" y="252" width="34" height="34"/>
<rect x="564" y="252" width="34" height="34"/>
<rect x="610" y="252" width="34" height="34"/>
<rect x="656" y="252" width="34" height="34"/>
<rect x="702" y="252" width="34" height="34"/>
<rect x="748" y="252" width="34" height="34"/>
<rect x="794" y="252" width="34" height="34"/>
<rect x="840" y="252" width="34" height="34"/>
<rect x="150" y="298" width="34" height="34"/>
<rect x="196" y="298" width="34" height="34"/>
<rect x="242" y="298" width="34" height="34"/>
<rect x="288" y="298" width="34" height="34"/>
<rect x="334" y="298" width="34" height="34"/>
<rect x="380" y="298" width="34" height="34"/>
<rect x="426" y="298" width="34" height="34"/>
<rect x="472" y="298" width="34" height="34"/>
<rect x="518" y="298" width="34" height="34"/>
<rect x="564" y="298" width="34" height="34"/>
<rect x="610" y="298" width="34" height="34"/>
<rect x="656" y="298" width="34" height="34"/>
<rect x="702" y="298" width="34" height="34"/>
<rect x="748" y="298" width="34" height="34"/>
<rect x="794" y="298" width="34" height="34"/>
<rect x="840" y="298" width="34" height="34"/>
<rect x="150" y="344" width="34" height="34"/>
<rect x="196" y="344" width="34" height="34"/>
<rect x="242" y="344" width="34" height="34"/>
<rect x="288" y="344" width="34" height="34"/>
<rect x="334" y="344" width="34" height="34"/>
<rect x="380" y="344" width="34" height="34"/>
<rect x="426" y="344" width="34" height="34"/>
<rect x="472" y="344" width="34" height="34"/>
<rect x="518" y="344" width="34" height="34"/>
<rect x="564" y="344" width="34" height="34"/>
<rect x="610" y="344" width="34" height="34"/>
<rect x="656" y="344" width="34" height="34"/>
<rect x="702" y="344" width="34" height="34"/>
<rect x="748" y="344" width="34" height="34"/>
<rect x="794" y="344" width="34" height="34"/>
<rect x="840" y="344" width="34" height="34"/>
<rect x="150" y="390" width="34" height="34"/>
<rect x="196" y="390" width="34" height="34"/>
<rect x="242" y="390" width="34" height="34"/>
<rect x="288" y="390" width="34" height="34"/>
<rect x="334" y="390" width="34" height="34"/>
<rect x="380" y="390" width="34" height="34"/>
<rect x="426" y="390" width="34" height="34"/>
<rect x="472" y="390" width="34" height="34"/>
<rect x="518" y="390" width="34" height="34"/>
<rect x="564" y="390" width="34" height="34"/>
<rect x="610" y="390" width="34" height="34"/>
<rect x="656" y="390" width="34" height="34"/>
<rect x="702" y="390" width="34" height="34"/>
<rect x="748" y="390" width="34" height="34"/>
<rect x="794" y="390" width="34" height="34"/>
<rect x="840" y="390" width="34" height="34"/>
<rect x="150" y="436" width="34" height="34"/>
<rect x="196" y="436" width="34" height="34"/>
<rect x="242" y="436" width="34" height="34"/>
<rect x="288" y="436" width="34" height="34"/>
<rect x="334" y="436" width="34" height="34"/>
<rect x="380" y="436" width="34" height="34"/>
<rect x="426" y="436" width="34" height="34"/>
<rect x="472" y="436" width="34" height="34"/>
<rect x="518" y="436" width="34" height="34"/>
<rect x="564" y="436" width="34" height="34"/>
<rect x="610" y="436" width="34" height="34"/>
<rect x="656" y="436" width="34" height="34"/>
<rect x="702" y="436" width="34" height="34"/>
<rect x="748" y="436" width="34" height="34"/>
<rect x="794" y="436" width="34" height="34"/>
<rect x="840" y="436" width="34" height="34"/>
<rect x="150" y="482" width="34" height="34"/>
<rect x="196" y="482" width="34" height="34"/>
<rect x="242" y="482" width="34" height="34"/>
<rect x="288" y="482" width="34" height="34"/>
<rect x="334" y="482" width="34" height="34"/>
<rect x="380" y="482" width="34" height="34"/>
<rect x="426" y="482" width="34" height="34"/>
<rect x="472" y="482" width="34" height="34"/>
<rect x="518" y="482" width="34" height="34"/>
<rect x="564" y="482" width="34" height="34"/>
<rect x="610" y="482" width="34" height="34"/>
<rect x="656" y="482" width="34" height="34"/>
<rect x="702" y="482" width="34" height="34"/>
<rect x="748" y="482" width="34" height="34"/>
<rect x="794" y="482" width="34" height="34"/>
<rect x="840" y="482" width="34" height="34"/>
<rect x="150" y="528" width="34" height="34"/>
<rect x="196" y="528" width="34" height="34"/>
<rect x="242" y="528" width="34" height="34"/>
<rect x="288" y="528" width="34" height="34"/>
<rect x="334" y="528" width="34" height="34"/>
<rect x="380" y="528" width="34" height="34"/>
<rect x="426" y="528" width="34" height="34"/>
<rect x="472" y="528" width="34" height="34"/>
<rect x="518" y="528" width="34" height="34"/>
<rect x="564" y="528" width="34" height="34"/>
<rect x="610" y="528" width="34" height="34"/>
<rect x="656" y="528" width="34" height="34"/>
<rect x="702" y="528" width="34" height="34"/>
<rect x="748" y="528" width="34" height="34"/>
<rect x="794" y="528" width="34" height="34"/>
<rect x="840" y="528" width="34" height="34"/>
<rect x="150" y="574" width="34" height="34"/>
<rect x="196" y="574" width="34" height="34"/>
<rect x="242" y="574" width="34" height="34"/>
<rect x="288" y="574" width="34" height="34"/>
<rect x="334" y="574" width="34" height="34"/>
<rect x="380" y="574" width="34" height="34"/>
<rect x="426" y="574" width="34" height="34"/>
<rect x="472" y="574" width="34" height="34"/>
<rect x="518" y="574" width="34" height="34"/>
<rect x="564" y="574" width="34" height="34"/>
<rect x="610" y="574" width="34" height="34"/>
<rect x="656" y="574" width="34" height="34"/>
<rect x="702" y="574" width="34" height="34"/>
<rect x="748" y="574" width="34" height="34"/>
<rect x="794" y="574" width="34" height="34"/>
<rect x="840" y="574" width="34" height="34"/>
<rect x="150" y="620" width="34" height="34"/>
<rect x="196" y="620" width="34" height="34"/>
<rect x="242" y="620" width="34" height="34"/>
<rect x="288" y="620" width="34" height="34"/>
<rect x="334" y="620" width="34" height="34"/>
<rect x="380" y="620" width="34" height="34"/>
<rect x="426" y="620" width="34" height="34"/>
<rect x="472" y="620" width="34" height="34"/>
<rect x="518" y="620" width="34" height="34"/>
<rect x="564" y="620" width="34" height="34"/>
<rect x="610" y="620" width="34" height="34"/>
<rect x="656" y="620" width="34" height="34"/>
<rect x="702" y="620" width="34" height="34"/>
<rect x="748" y="620" width="34" height="34"/>
<rect x="794" y="620" width="34" height="34"/>
<rect x="840" y="620" width="34" height="34"/>
<rect x="150" y="666" width="34" height="34"/>
<rect x="196" y="666" width="34" height="34"/>
<rect x="242" y="666" width="34" height="34"/>
<rect x="288" y="666" width="34" height="34"/>
<rect x="334" y="666" width="34" height="34"/>
<rect x="380" y="666" width="34" height="34"/>
<rect x="426" y="666" width="34" height="34"/>
<rect x="472" y="666" width="34" height="34"/>
<rect x="518" y="666" width="34" height="34"/>
<rect x="564" y="666" width="34" height="34"/>
<rect x="610" y="666" width="34" height="34"/>
<rect x="656" y="666" width="34" height="34"/>
<rect x="702" y="666" width="34" height="34"/>
<rect x="748" y="666" width="34" height="34"/>
<rect x="794" y="666" width="34" height="34"/>
<rect x="840" y="666" width="34" height="34"/>
<rect x="150" y="712" width="34" height="34"/>
<rect x="196" y="712" width="34" height="34"/>
<rect x="242" y="712" width="34" height="34"/>
<rect x="288" y="712" width="34" height="34"/>
<rect x="334" y="712" width="34" height="34"/>
<rect x="380" y="712" width="34" height="34"/>
<rect x="426" y="712" width="34" height="34"/>
<rect x="472" y="712" width="34" height="34"/>
<rect x="518" y="712" width="34" height="34"/>
<rect x="564" y="712" width="34" height="34"/>
<rect x="610" y="712" width="34" height="34"/>
<rect x="656" y="712" width="34" height="34"/>
<rect x="702" y="712" width="34" height="34"/>
<rect x="748" y="712" width="34" height="34"/>
<rect x="794" y="712" width="34" height="34"/>
<rect x="840" y="712" width="34" height="34"/>
</svg>
